<?xml version="1.0" encoding="UTF-8"?>
<svg id="Layer_1" xmlns="http://www.w3.org/2000/svg" version="1.1" xmlns:xlink="http://www.w3.org/1999/xlink" viewBox="0 0 248.2 303">
  <!-- Generator: Adobe Illustrator 29.0.0, SVG Export Plug-In . SVG Version: 2.1.0 Build 186)  -->
  <defs>
    <style>
      .st0 {
        fill: url(#Degradado_sin_nombre_192);
      }
    </style>
    <linearGradient id="Degradado_sin_nombre_192" data-name="Degradado sin nombre 192" x1="0" y1="151.5" x2="248.2" y2="151.5" gradientUnits="userSpaceOnUse">
      <stop offset="0" stop-color="#3b82f6"/>
      <stop offset=".6" stop-color="#8b5cf6"/>
      <stop offset="1" stop-color="#7c3aed"/>
    </linearGradient>
  </defs>
  <path class="st0" d="M109.3,15.2c4.3-5.1,8.2-10,12.5-14.6.8-.8,3.6-.8,4.6,0,2.6,2.2,4.9,4.9,7.1,7.6,13.9,17.1,27.8,34.3,41.8,51.4,14.5,17.8,29,35.5,43.5,53.2,8.9,10.9,17.9,21.8,26.9,32.6,3.8,4.6,3.4,7.8-2.1,14.5-11.2,13.6-22.3,27.2-33.4,40.9-6.4,7.9-12.4,16-18.8,23.8-9.2,11.1-18.7,21.8-28,32.9-11.5,13.8-22.8,27.7-34.2,41.5-4.3,5.2-5.7,5.2-10,0-16.5-19.8-33.2-39.5-49.6-59.4-9.4-11.4-18.2-23.3-27.5-34.8-7.7-9.6-15.8-18.8-23.7-28.3-5.3-6.4-10.5-12.9-15.7-19.4-4.1-5.1-3.4-8.2,1-13,6.7-7.4,12.9-15.2,19.1-23,15.5-19.3,30.8-38.8,46.4-58,13.1-16.1,26.6-31.8,40.2-48M150.6,64c-5.7-6.9-11.8-13.5-17-20.8-7.7-10.7-11.4-10.7-19-.2-7.8,10.7-16.2,21.1-24.6,31.4-10.7,12.9-21.7,25.5-32.4,38.5-8.3,10.1-16.3,20.6-24.6,30.8-4.5,5.5-4.8,9.2-.2,14.6,13.1,15.7,26.4,31.2,39.4,47,11.3,13.7,22.4,27.6,33.5,41.4,6,7.4,12,14.9,19.1,23.6,1.6-2.4,2.6-3.9,3.7-5.3,4-5.1,7.9-10.3,12-15.3,7.5-9,15.4-17.7,22.9-26.8,8.5-10.3,16.6-20.8,24.9-31.2,8.7-10.7,17.5-21.3,26.2-32,5.5-6.8,5.7-8.9.3-15.6-8-10-16.3-19.8-24.3-29.8-13.2-16.5-26.3-33.1-39.9-50.2h0Z"/>
</svg>